<svg width="33" height="22" viewBox="0 0 33 22" fill="none" xmlns="http://www.w3.org/2000/svg">
<path d="M28.7215 10.5402H29.9289L29.075 9.68659L21.8824 2.49625C21.7615 2.37544 21.6937 2.21157 21.6937 2.04071C21.6937 1.86985 21.7615 1.70599 21.8824 1.58517C22.0032 1.46436 22.167 1.39648 22.3379 1.39648C22.5088 1.39648 22.6726 1.46436 22.7934 1.58517L31.9357 10.7274L31.9362 10.7279C31.996 10.7876 32.0435 10.8585 32.0759 10.9366C32.1083 11.0147 32.125 11.0984 32.125 11.183C32.125 11.2675 32.1083 11.3513 32.0759 11.4293C32.0435 11.5074 31.996 11.5784 31.9362 11.6381L31.9357 11.6385L22.7934 20.7808C22.6726 20.9016 22.5088 20.9695 22.3379 20.9695C22.167 20.9695 22.0032 20.9016 21.8824 20.7808C21.7615 20.66 21.6937 20.4961 21.6937 20.3253C21.6937 20.1544 21.7615 19.9905 21.8824 19.8697L29.075 12.6794L29.9289 11.8258H28.7215H1.76778C1.59731 11.8258 1.43381 11.758 1.31327 11.6375L0.959714 11.9911L1.31327 11.6375C1.19272 11.517 1.125 11.3535 1.125 11.183C1.125 11.0125 1.19272 10.849 1.31327 10.7285C1.43381 10.6079 1.59731 10.5402 1.76778 10.5402H28.7215Z" fill="white" stroke="white"/>
</svg>
