<svg width="17" height="19" viewBox="0 0 17 19" fill="none" xmlns="http://www.w3.org/2000/svg">
<path fill-rule="evenodd" clip-rule="evenodd" d="M12.8064 1.54188C12.8064 1.20593 12.5223 0.933594 12.1718 0.933594C11.8213 0.933594 11.5372 1.20593 11.5372 1.54188V2.21383H5.97138V1.54188C5.97138 1.20593 5.68725 0.933594 5.33676 0.933594C4.98628 0.933594 4.70215 1.20593 4.70215 1.54188V2.22887C3.54219 2.3046 2.53229 2.66773 1.78403 3.34952C0.931571 4.12626 0.5 5.24247 0.5 6.58787V13.9276C0.5 15.2893 0.929627 16.4211 1.77959 17.2108C2.62641 17.9975 3.81101 18.3707 5.17158 18.3707H12.3284C13.6896 18.3707 14.8733 18.005 15.7199 17.2302C16.571 16.4513 17 15.3334 17 13.989V6.58871C17.0041 5.24424 16.5772 4.12757 15.7264 3.35011C14.9793 2.66749 13.9689 2.30448 12.8064 2.22884V1.54188ZM11.5372 3.43041V4.21088C11.5372 4.54683 11.8213 4.81917 12.1718 4.81917C12.5223 4.81917 12.8064 4.54683 12.8064 4.21088V3.44874C13.7029 3.5209 14.3821 3.80258 14.8506 4.23069C15.3929 4.72618 15.7343 5.49201 15.7307 6.58599L15.7307 6.58787V6.93844H1.76923V6.58787C1.76923 5.49435 2.1137 4.72769 2.6585 4.23128C3.129 3.80257 3.80868 3.52103 4.70215 3.4488V4.21088C4.70215 4.54683 4.98628 4.81917 5.33676 4.81917C5.68725 4.81917 5.97138 4.54683 5.97138 4.21088V3.43041H11.5372ZM1.76923 8.1554V13.9276C1.76923 15.0432 2.11564 15.8287 2.66294 16.3372C3.21339 16.8485 4.04726 17.1541 5.17158 17.1541H12.3284C13.4599 17.1541 14.2947 16.8525 14.8434 16.3503C15.3876 15.8523 15.7307 15.0834 15.7307 13.989V8.1554H1.76923ZM12.5086 10.1059C12.1582 10.1059 11.874 10.3783 11.874 10.7144C11.874 11.0505 12.1582 11.3229 12.5086 11.3229H12.5165C12.867 11.3229 13.1511 11.0505 13.1511 10.7144C13.1511 10.3783 12.867 10.1059 12.5165 10.1059H12.5086ZM8.11816 10.7144C8.11816 10.3783 8.40229 10.1059 8.75278 10.1059H8.76062C9.11111 10.1059 9.39523 10.3783 9.39523 10.7144C9.39523 11.0505 9.11111 11.3229 8.76062 11.3229H8.75278C8.40229 11.3229 8.11816 11.0505 8.11816 10.7144ZM4.99106 10.1059C4.64057 10.1059 4.35645 10.3783 4.35645 10.7144C4.35645 11.0505 4.64057 11.3229 4.99106 11.3229H4.9989C5.34939 11.3229 5.63351 11.0505 5.63351 10.7144C5.63351 10.3783 5.34939 10.1059 4.9989 10.1059H4.99106ZM11.874 13.8667C11.874 13.5306 12.1582 13.2582 12.5086 13.2582H12.5165C12.867 13.2582 13.1511 13.5306 13.1511 13.8667C13.1511 14.2027 12.867 14.4752 12.5165 14.4752H12.5086C12.1582 14.4752 11.874 14.2027 11.874 13.8667ZM8.75278 13.2582C8.40229 13.2582 8.11816 13.5306 8.11816 13.8667C8.11816 14.2027 8.40229 14.4752 8.75278 14.4752H8.76062C9.11111 14.4752 9.39523 14.2027 9.39523 13.8667C9.39523 13.5306 9.11111 13.2582 8.76062 13.2582H8.75278ZM4.35645 13.8667C4.35645 13.5306 4.64057 13.2582 4.99106 13.2582H4.9989C5.34939 13.2582 5.63351 13.5306 5.63351 13.8667C5.63351 14.2027 5.34939 14.4752 4.9989 14.4752H4.99106C4.64057 14.4752 4.35645 14.2027 4.35645 13.8667Z" fill="#9B9B9B"/>
</svg>
