<svg width="76" height="77" viewBox="0 0 76 77" fill="none" xmlns="http://www.w3.org/2000/svg">
<circle cx="38.5" cy="37.54" r="36.5" stroke="#F0F0F0" stroke-width="2"/>
<path d="M74.958 37.54C74.958 58.2507 58.5884 75.04 38.3955 75.04C18.2026 75.04 1.83301 58.2507 1.83301 37.54" stroke="#088C4D" stroke-width="2"/>
<path d="M30.8333 50.9567C31.85 50.9567 32.825 50.5528 33.5439 49.8339C34.2628 49.1151 34.6667 48.14 34.6667 47.1234C34.6667 46.1067 34.2628 45.1317 33.5439 44.4128C32.825 43.6939 31.85 43.29 30.8333 43.29C29.8167 43.29 28.8416 43.6939 28.1228 44.4128C27.4039 45.1317 27 46.1067 27 47.1234C27 48.14 27.4039 49.1151 28.1228 49.8339C28.8416 50.5528 29.8167 50.9567 30.8333 50.9567V50.9567ZM50 50.9567C51.0167 50.9567 51.9917 50.5528 52.7106 49.8339C53.4295 49.1151 53.8333 48.14 53.8333 47.1234C53.8333 46.1067 53.4295 45.1317 52.7106 44.4128C51.9917 43.6939 51.0167 43.29 50 43.29C48.9833 43.29 48.0083 43.6939 47.2894 44.4128C46.5705 45.1317 46.1667 46.1067 46.1667 47.1234C46.1667 48.14 46.5705 49.1151 47.2894 49.8339C48.0083 50.5528 48.9833 50.9567 50 50.9567V50.9567Z" stroke="white" stroke-width="1.5" stroke-miterlimit="1.5" stroke-linecap="round" stroke-linejoin="round"/>
<path d="M34.7625 47.1234H44.25V27.19C44.25 26.885 44.1288 26.5925 43.9131 26.3769C43.6975 26.1612 43.405 26.04 43.1 26.04H17.4166M26.3291 47.1234H22.4C22.2489 47.1234 22.0994 47.0936 21.9599 47.0358C21.8203 46.978 21.6936 46.8933 21.5868 46.7865C21.48 46.6798 21.3953 46.553 21.3375 46.4135C21.2797 46.2739 21.25 46.1244 21.25 45.9734V36.5817" stroke="white" stroke-width="1.5" stroke-linecap="round"/>
<path d="M19.3333 31.79H26.9999" stroke="white" stroke-width="1.5" stroke-linecap="round" stroke-linejoin="round"/>
<path d="M44.25 31.79H55.0025C55.2248 31.7901 55.4423 31.8546 55.6287 31.9757C55.8151 32.0968 55.9624 32.2693 56.0528 32.4724L59.4837 40.1927C59.549 40.3393 59.583 40.498 59.5833 40.6585V45.9734C59.5833 46.1244 59.5536 46.2739 59.4958 46.4135C59.438 46.553 59.3533 46.6798 59.2465 46.7865C59.1397 46.8933 59.0129 46.978 58.8734 47.0358C58.7339 47.0936 58.5844 47.1234 58.4333 47.1234H54.7917M44.25 47.1234H46.1667" stroke="white" stroke-width="1.5" stroke-linecap="round"/>
</svg>
