<svg width="36" height="43" viewBox="0 0 36 43" fill="none" xmlns="http://www.w3.org/2000/svg">
<path d="M2.53124 38.9375H33.4687C33.8982 38.9368 34.3125 39.0852 34.6299 39.3535C34.9473 39.6218 35.1448 39.9906 35.1836 40.3872C35.2224 40.7839 35.0997 41.1796 34.8396 41.4965C34.5794 41.8134 34.2007 42.0285 33.7781 42.0995L33.4687 42.125H2.53124C2.10174 42.1257 1.68751 41.9773 1.37011 41.709C1.05272 41.4407 0.855168 41.0719 0.81636 40.6753C0.777553 40.2786 0.900302 39.8829 1.16044 39.566C1.42057 39.2491 1.79924 39.034 2.22187 38.963L2.53124 38.9375H33.4687H2.53124ZM17.6906 0.713L18 0.6875C18.4023 0.687376 18.7918 0.818096 19.1009 1.0569C19.4099 1.2957 19.6188 1.62745 19.6912 1.99437L19.7187 2.28125V30.3057L28.9381 21.7601C29.2225 21.496 29.5978 21.3329 29.9986 21.2992C30.3993 21.2654 30.8002 21.3631 31.1312 21.5752L31.3719 21.7601C31.6561 22.0242 31.8313 22.3724 31.8671 22.744C31.9029 23.1156 31.797 23.4871 31.5678 23.7937L31.3684 24.0136L19.2169 35.2846C18.9321 35.5482 18.5566 35.7107 18.1558 35.7439C17.755 35.7771 17.3544 35.6788 17.0237 35.4663L16.7831 35.2846L4.63156 24.0136C4.32705 23.7325 4.14713 23.3559 4.12727 22.9578C4.1074 22.5598 4.24902 22.1694 4.52422 21.8634C4.79942 21.5574 5.18824 21.3581 5.61405 21.3048C6.03986 21.2514 6.47178 21.3479 6.82468 21.5752L7.06187 21.7601L16.2812 30.3057V2.28125C16.2811 1.90823 16.4221 1.54699 16.6796 1.26042C16.9371 0.973864 17.2949 0.780144 17.6906 0.713L18 0.6875L17.6906 0.713Z" fill="white"/>
</svg>
