<svg width="29" height="30" viewBox="0 0 29 30" fill="none" xmlns="http://www.w3.org/2000/svg">
<path d="M27.5467 0.720703H1.44714C0.819475 0.720703 0.312378 1.2278 0.312378 1.85547V27.955C0.312378 28.5827 0.819475 29.0898 1.44714 29.0898H27.5467C28.1744 29.0898 28.6814 28.5827 28.6814 27.955V1.85547C28.6814 1.2278 28.1744 0.720703 27.5467 0.720703ZM24.2701 9.00093H22.0041C20.2275 9.00093 19.8835 9.84491 19.8835 11.0861V13.8201H24.1247L23.5715 18.1003H19.8835V29.0898H15.4615V18.1039H11.7628V13.8201H15.4615V10.6641C15.4615 7.00091 17.6991 5.00443 20.9686 5.00443C22.536 5.00443 23.88 5.12146 24.2736 5.17465V9.00093H24.2701Z" fill="white"/>
</svg>
