<svg width="37" height="34" viewBox="0 0 37 34" fill="none" xmlns="http://www.w3.org/2000/svg">
<path d="M18.3406 0.855469C13.523 0.855469 12.9226 0.877029 11.0372 0.950951C9.1441 1.03719 7.86355 1.30927 6.73365 1.71584C5.55109 2.12961 4.48012 2.77745 3.59541 3.61419C2.69009 4.43225 1.99072 5.4254 1.54719 6.5228C1.10852 7.57002 0.814967 8.75688 0.721917 10.5115C0.63662 12.2599 0.618896 12.8154 0.618896 17.2805C0.618896 21.7455 0.642159 22.302 0.721917 24.0494C0.814967 25.7989 1.10852 26.9909 1.54719 28.0381C1.99363 29.1341 2.69261 30.1267 3.59541 30.9467C4.47805 31.7858 5.54961 32.434 6.73365 32.8451C7.86355 33.2465 9.14964 33.5237 11.0372 33.61C12.9237 33.689 13.523 33.7054 18.3406 33.7054C23.1582 33.7054 23.7586 33.6839 25.644 33.61C27.5316 33.5237 28.8176 33.2455 29.9475 32.8451C31.1301 32.4313 32.2011 31.7835 33.0858 30.9467C33.9923 30.1296 34.6918 29.1361 35.134 28.0381C35.5671 26.9909 35.8662 25.7989 35.9593 24.0494C36.0446 22.301 36.0623 21.7455 36.0623 17.2805C36.0623 12.8154 36.039 12.2589 35.9593 10.5115C35.8662 8.76201 35.566 7.56386 35.134 6.5228C34.6876 5.42677 33.9886 4.43417 33.0858 3.61419C32.2041 2.77403 31.1323 2.12567 29.9475 1.71584C28.8176 1.30927 27.5316 1.03719 25.644 0.950951C23.7575 0.871896 23.1582 0.855469 18.3406 0.855469ZM18.3406 3.81234C23.0718 3.81234 23.6367 3.8339 25.5066 3.90782C27.2314 3.98277 28.1707 4.24971 28.7944 4.47558C29.5654 4.73936 30.2632 5.1592 30.8371 5.70453C31.4244 6.23412 31.8757 6.87942 32.1575 7.59261C32.4012 8.17064 32.6892 9.04127 32.7701 10.6398C32.8498 12.3729 32.8731 12.8975 32.8731 17.2815C32.8731 21.6655 32.8498 22.1901 32.7634 23.9231C32.6704 25.5217 32.3824 26.3923 32.1398 26.9704C31.8041 27.7414 31.4297 28.2804 30.8116 28.8636C30.2358 29.4055 29.5384 29.8233 28.7689 30.0874C28.153 30.3133 27.2003 30.5802 25.4689 30.6551C23.5891 30.7291 23.0352 30.7506 18.2919 30.7506C13.5485 30.7506 12.9957 30.7291 11.1137 30.649C9.38891 30.5627 8.43736 30.2958 7.8137 30.071C6.97181 29.7599 6.39468 29.4129 5.77656 28.84C5.1529 28.2619 4.75632 27.7116 4.45059 26.9467C4.20245 26.3759 3.91887 25.493 3.82693 23.8882C3.76378 22.1665 3.73387 21.6326 3.73387 17.2568C3.73387 12.8831 3.76378 12.3482 3.82693 10.6049C3.91887 9.0002 4.20245 8.1193 4.45059 7.54641C4.75632 6.7651 5.154 6.23122 5.77656 5.65319C6.39357 5.08133 6.97181 4.71172 7.8137 4.42219C8.43736 4.19735 9.36565 3.93041 11.0971 3.85032C12.9769 3.7877 13.5308 3.76511 18.2675 3.76511L18.3406 3.81234ZM18.3406 8.85031C17.1457 8.8499 15.9625 9.06773 14.8585 9.49134C13.7545 9.91496 12.7513 10.5361 11.9064 11.3191C11.0615 12.1022 10.3914 13.0319 9.93434 14.0552C9.47728 15.0784 9.24225 16.1751 9.24269 17.2825C9.24225 18.39 9.47728 19.4866 9.93434 20.5099C10.3914 21.5331 11.0615 22.4628 11.9064 23.2459C12.7513 24.029 13.7545 24.6501 14.8585 25.0737C15.9625 25.4973 17.1457 25.7151 18.3406 25.7147C19.5355 25.7151 20.7187 25.4973 21.8227 25.0737C22.9267 24.6501 23.9299 24.029 24.7748 23.2459C25.6197 22.4628 26.2898 21.5331 26.7469 20.5099C27.2039 19.4866 27.4389 18.39 27.4385 17.2825C27.4389 16.1751 27.2039 15.0784 26.7469 14.0552C26.2898 13.0319 25.6197 12.1022 24.7748 11.3191C23.9299 10.5361 22.9267 9.91496 21.8227 9.49134C20.7187 9.06773 19.5355 8.8499 18.3406 8.85031ZM18.3406 22.7578C15.075 22.7578 12.433 20.3092 12.433 17.2825C12.433 14.2558 15.075 11.8072 18.3406 11.8072C21.6062 11.8072 24.2482 14.2558 24.2482 17.2825C24.2482 20.3092 21.6062 22.7578 18.3406 22.7578ZM29.932 8.51355C29.9314 9.03682 29.7068 9.53847 29.3073 9.90828C28.9079 10.2781 28.3664 10.4858 27.8018 10.4858C27.5227 10.4858 27.2463 10.4349 26.9883 10.3358C26.7304 10.2368 26.4961 10.0917 26.2987 9.90876C26.1013 9.72581 25.9447 9.50861 25.8379 9.26957C25.7311 9.03054 25.6761 8.77434 25.6761 8.5156C25.6761 8.25687 25.7311 8.00067 25.8379 7.76163C25.9447 7.5226 26.1013 7.3054 26.2987 7.12245C26.4961 6.9395 26.7304 6.79437 26.9883 6.69536C27.2463 6.59635 27.5227 6.54539 27.8018 6.54539C28.9727 6.54539 29.932 7.42834 29.932 8.51355Z" fill="white"/>
</svg>
