<svg width="76" height="76" viewBox="0 0 76 76" fill="none" xmlns="http://www.w3.org/2000/svg">
<circle cx="38.5" cy="37.5" r="36.5" stroke="#F0F0F0" stroke-width="2"/>
<path d="M74.958 37.5C74.958 58.2107 58.5884 75 38.3955 75C18.2026 75 1.83301 58.2107 1.83301 37.5" stroke="#088C4D" stroke-width="2"/>
<path d="M51.7167 31.4163L45.7167 34.2163L41.8333 30.333V27.9997L45.7167 24.1163L51.7167 26.9163C52.35 27.2163 53.0833 26.933 53.3833 26.3163C53.6833 25.683 53.4 24.9497 52.7833 24.6497L46.25 21.5997C45.9402 21.4535 45.5926 21.407 45.2553 21.4667C44.918 21.5264 44.6075 21.6894 44.3667 21.933L41.4667 24.833C41.3171 24.6281 41.1216 24.4611 40.8958 24.3453C40.6701 24.2296 40.4204 24.1683 40.1667 24.1663C39.25 24.1663 38.5 24.9163 38.5 25.833V27.4997H33.2C32.5 25.5663 30.6667 24.1663 28.5 24.1663C25.7333 24.1663 23.5 26.3997 23.5 29.1663C23.5 30.9997 24.5 32.583 25.9667 33.4663L30.3 47.4997H28.5C26.6667 47.4997 25.1667 48.9997 25.1667 50.833V52.4997H46.8333V50.833C46.8333 48.9997 45.3333 47.4997 43.5 47.4997H40.8L32.5167 32.1163C32.8 31.7163 33.0333 31.2997 33.2 30.833H38.5V32.4997C38.5 33.4163 39.25 34.1663 40.1667 34.1663C40.7 34.1663 41.1667 33.8997 41.4667 33.4997L44.3667 36.3997C44.8667 36.8997 45.6167 37.033 46.25 36.733L52.7833 33.683C53.4167 33.383 53.6833 32.6497 53.3833 32.0163C53.2414 31.7162 52.9863 31.4846 52.6739 31.3721C52.3615 31.2597 52.0173 31.2756 51.7167 31.4163ZM28.5 30.833C27.5833 30.833 26.8333 30.083 26.8333 29.1663C26.8333 28.2497 27.5833 27.4997 28.5 27.4997C29.4167 27.4997 30.1667 28.2497 30.1667 29.1663C30.1667 30.083 29.4167 30.833 28.5 30.833ZM37.0167 47.4997H33.7833L29.6833 34.1663H29.85L37.0167 47.4997Z" fill="#088C4D"/>
</svg>
