<svg width="76" height="76" viewBox="0 0 76 76" fill="none" xmlns="http://www.w3.org/2000/svg">
<circle cx="38.5" cy="37.5" r="36.5" stroke="#F0F0F0" stroke-width="2"/>
<path d="M74.958 37.5C74.958 58.2107 58.5884 75 38.3955 75C18.2026 75 1.83301 58.2107 1.83301 37.5" stroke="#088C4D" stroke-width="2"/>
<path d="M23.7534 51.4269V30.1263L38.5 23.5723L53.2466 30.1263V51.4269" stroke="#088C4D" stroke-width="3" stroke-linecap="round" stroke-linejoin="round"/>
<path d="M40.1387 38.3184H46.6927V51.4264H30.3076V41.5954H40.1387" stroke="#088C4D" stroke-width="3" stroke-linecap="round" stroke-linejoin="round"/>
<path d="M40.1385 51.4271V36.6805C40.1385 36.2459 39.9659 35.8292 39.6586 35.5219C39.3513 35.2146 38.9346 35.042 38.5 35.042H35.223C34.7884 35.042 34.3717 35.2146 34.0644 35.5219C33.7571 35.8292 33.5845 36.2459 33.5845 36.6805V41.596" stroke="#088C4D" stroke-width="3" stroke-linecap="round" stroke-linejoin="round"/>
</svg>
