<svg width="37" height="36" viewBox="0 0 37 36" fill="none" xmlns="http://www.w3.org/2000/svg">
<path d="M18.2187 0.261719C8.19648 0.261719 0.0625 8.20203 0.0625 17.9856C0.0625 27.7692 8.19648 35.7095 18.2187 35.7095C28.2409 35.7095 36.3749 27.7692 36.3749 17.9856C36.3749 8.20203 28.2409 0.261719 18.2187 0.261719ZM26.6432 12.314C26.3708 15.1144 25.1907 21.9203 24.5915 25.0575C24.3373 26.3868 23.829 26.8299 23.3569 26.883C22.3039 26.9717 21.505 26.2095 20.4882 25.5537C18.8905 24.5258 17.9827 23.8877 16.4394 22.8952C14.6419 21.7431 15.8039 21.105 16.8388 20.0771C17.1112 19.8112 21.7592 15.6815 21.8499 15.3093C21.8626 15.2529 21.8609 15.1944 21.8451 15.1388C21.8292 15.0832 21.7998 15.0322 21.7592 14.9903C21.6502 14.9017 21.505 14.9371 21.3779 14.9548C21.2145 14.9903 18.6726 16.6386 13.716 19.8998C12.9897 20.3784 12.3361 20.6265 11.7551 20.6088C11.1015 20.591 9.86685 20.2543 8.94088 19.953C7.79704 19.5985 6.90739 19.4035 6.98001 18.7832C7.01633 18.4642 7.47023 18.1451 8.32357 17.8084C13.6252 15.5575 17.1475 14.0686 18.9086 13.3597C23.9561 11.3037 24.991 10.9492 25.6809 10.9492C25.8262 10.9492 26.1711 10.9847 26.389 11.1619C26.5706 11.3037 26.625 11.4987 26.6432 11.6405C26.625 11.7468 26.6613 12.0658 26.6432 12.314Z" fill="white"/>
</svg>
